<?xml version="1.0" encoding="utf-8"?>
<!-- Generator: Adobe Illustrator 27.5.0, SVG Export Plug-In . SVG Version: 6.00 Build 0)  -->
<svg version="1.1" id="Layer_2_00000116954958478082458110000017084126523322261644_"
	 xmlns="http://www.w3.org/2000/svg" xmlns:xlink="http://www.w3.org/1999/xlink" x="0px" y="0px" viewBox="0 0 330.8 173.2"
	 style="enable-background:new 0 0 330.8 173.2;" xml:space="preserve">
<style type="text/css">
	.st0{enable-background:new    ;}
	.st1{fill:white;   filter: drop-shadow(4px 2px 2px rgb(0 0 0 / 0.24)); }
</style>
<g id="Layer_1-2">
	<g class="st0">
		<path class="st1" d="M22.8,88.7v32.8c-0.6,0.2-1.5,0.4-2.5,0.6c-1,0.2-2.2,0.4-3.5,0.4c-2.5,0-4.3-0.5-5.3-1.4
			c-1.1-0.9-1.6-2.5-1.6-4.6V48.8c0.6-0.2,1.5-0.3,2.6-0.5c1.1-0.2,2.2-0.3,3.4-0.3c2.3,0,4.1,0.4,5.2,1.3c1.2,0.9,1.7,2.4,1.7,4.7
			v27.1l30.8-32.9c3,0.1,5.2,0.7,6.6,2c1.4,1.2,2,2.7,2,4.4c0,1.4-0.4,2.6-1.1,3.8c-0.7,1.2-1.8,2.4-3.1,3.8L35.3,84.7
			c6.6,6.8,12.5,12.8,17.5,18.1c5,5.2,9.3,9.5,12.9,12.8c-0.2,2.2-0.9,4-2.2,5.2c-1.3,1.2-2.9,1.9-4.7,1.9c-1.9,0-3.5-0.5-4.9-1.6
			c-1.3-1-2.7-2.2-4-3.6L22.8,88.7z"/>
	</g>
	<g class="st0">
		<path class="st1" d="M76.3,48.2c0-2.1,0.7-3.8,2.2-5.2c1.4-1.4,3.3-2.1,5.5-2.1c2.2,0,4,0.7,5.4,2.1c1.4,1.4,2,3.1,2,5.2
			c0,2.1-0.7,3.8-2,5.2c-1.4,1.4-3.2,2.1-5.4,2.1c-2.2,0-4.1-0.7-5.5-2.1C77,52,76.3,50.3,76.3,48.2z M90.2,121.4
			c-0.6,0.2-1.3,0.5-2.3,0.7c-1,0.2-2.1,0.3-3.4,0.3c-2.3,0-4-0.4-5.2-1.3c-1.1-0.9-1.7-2.4-1.7-4.4V65.8c0.6-0.2,1.5-0.4,2.5-0.6
			c1-0.2,2.1-0.4,3.4-0.4c2.3,0,4,0.4,5.1,1.3c1.1,0.9,1.6,2.4,1.6,4.6V121.4z"/>
		<path class="st1" d="M119.9,121.4c-0.6,0.2-1.3,0.5-2.3,0.7c-1,0.2-2.1,0.3-3.3,0.3c-2.3,0-4-0.4-5.2-1.3
			c-1.1-0.9-1.7-2.4-1.7-4.4V77.2c0-2,0.4-3.6,1.2-4.9c0.8-1.2,2.1-2.4,3.8-3.5c2.3-1.4,5.3-2.6,8.9-3.6c3.6-1,7.6-1.4,11.9-1.4
			c7,0,10.6,2,10.6,6c0,1-0.2,1.9-0.5,2.7c-0.3,0.8-0.7,1.6-1.1,2.2c-0.8-0.2-1.8-0.3-3-0.5c-1.2-0.2-2.5-0.2-3.8-0.2
			c-3.2,0-6.1,0.3-8.8,1c-2.6,0.7-4.9,1.5-6.7,2.6V121.4z"/>
		<path class="st1" d="M154.2,65.6c0.6-0.2,1.4-0.3,2.4-0.5c1-0.2,2.2-0.3,3.4-0.3c2.3,0,4,0.4,5.1,1.3c1.1,0.9,1.6,2.4,1.6,4.6
			v29.6c0,4.6,1.2,7.9,3.7,9.9c2.4,2,5.8,2.9,10.1,2.9c2.8,0,5.2-0.3,7.1-0.8c1.9-0.6,3.4-1.2,4.6-1.8V65.6c0.6-0.2,1.5-0.3,2.5-0.5
			c1-0.2,2.1-0.3,3.3-0.3c2.3,0,4,0.4,5.2,1.3c1.1,0.9,1.7,2.4,1.7,4.6v40.4c0,1.8-0.3,3.2-0.8,4.3c-0.6,1.1-1.7,2.2-3.4,3.2
			c-2.1,1.2-4.8,2.3-8.2,3.2c-3.4,1-7.4,1.4-11.9,1.4c-8.2,0-14.7-1.8-19.3-5.5c-4.6-3.6-6.9-9.4-6.9-17.3V65.6z"/>
		<path class="st1" d="M215.2,115.3c0-2.3,0.7-4.2,2.1-5.8c1.4-1.5,3.3-2.3,5.8-2.3c2.6,0,4.5,0.8,5.9,2.3c1.4,1.5,2,3.4,2,5.8
			c0,2.3-0.7,4.2-2,5.8c-1.4,1.5-3.3,2.3-5.9,2.3c-2.5,0-4.4-0.8-5.8-2.3C215.9,119.5,215.2,117.6,215.2,115.3z"/>
		<path class="st1" d="M240.6,48.2c0-2.1,0.7-3.8,2.2-5.2c1.4-1.4,3.3-2.1,5.5-2.1c2.2,0,4,0.7,5.4,2.1c1.4,1.4,2,3.1,2,5.2
			c0,2.1-0.7,3.8-2,5.2c-1.4,1.4-3.2,2.1-5.4,2.1c-2.2,0-4.1-0.7-5.5-2.1C241.3,52,240.6,50.3,240.6,48.2z M254.5,121.4
			c-0.6,0.2-1.3,0.5-2.3,0.7c-1,0.2-2.1,0.3-3.4,0.3c-2.3,0-4-0.4-5.2-1.3c-1.1-0.9-1.7-2.4-1.7-4.4V65.8c0.6-0.2,1.5-0.4,2.5-0.6
			c1-0.2,2.1-0.4,3.4-0.4c2.3,0,4,0.4,5.1,1.3c1.1,0.9,1.6,2.4,1.6,4.6V121.4z"/>
		<path class="st1" d="M325.6,93.5c0,4.6-0.7,8.7-2,12.4c-1.4,3.7-3.3,6.8-5.7,9.4c-2.4,2.6-5.4,4.5-8.9,5.9
			c-3.5,1.4-7.4,2.1-11.8,2.1c-4.3,0-8.2-0.7-11.8-2.1c-3.5-1.4-6.5-3.4-8.9-5.9c-2.4-2.6-4.3-5.7-5.7-9.4c-1.4-3.7-2-7.8-2-12.4
			c0-4.6,0.7-8.7,2-12.4c1.4-3.7,3.3-6.8,5.8-9.4c2.5-2.6,5.5-4.5,9-5.9c3.5-1.4,7.4-2.1,11.6-2.1c4.2,0,8.1,0.7,11.6,2.1
			c3.5,1.4,6.5,3.4,9,6c2.5,2.6,4.4,5.7,5.8,9.4C324.9,84.9,325.6,89,325.6,93.5z M297.1,73.9c-4.8,0-8.6,1.7-11.4,5.2
			c-2.8,3.4-4.2,8.3-4.2,14.5s1.4,11.1,4.1,14.5c2.7,3.4,6.6,5.1,11.5,5.1c5,0,8.8-1.7,11.5-5.1c2.7-3.4,4.1-8.2,4.1-14.5
			c0-6.2-1.4-11-4.1-14.5C305.8,75.6,302,73.9,297.1,73.9z"/>
	</g>
</g>
</svg>
