<?xml version="1.0" encoding="UTF-8" standalone="no" ?>
<!DOCTYPE svg PUBLIC "-//W3C//DTD SVG 1.1//EN" "http://www.w3.org/Graphics/SVG/1.1/DTD/svg11.dtd">
<svg xmlns="http://www.w3.org/2000/svg" xmlns:xlink="http://www.w3.org/1999/xlink" version="1.1" width="500" height="500" viewBox="0 0 500 500" xml:space="preserve">
<desc>Created with Fabric.js 4.6.0</desc>
<defs>
</defs>
<g transform="matrix(1 0 0 1 271.63 241.19)" id="hOBV7oRFq22Ml0ucL-0Q5"  >
<path style="stroke: none; stroke-width: 1; stroke-dasharray: none; stroke-linecap: butt; stroke-dashoffset: 0; stroke-linejoin: miter; stroke-miterlimit: 4; fill: rgb(0,0,0); fill-rule: nonzero; opacity: 1;" vector-effect="non-scaling-stroke"  transform=" translate(0, 0)" d="M -208.06403 66.1095 C -209.30303 71.7735 -211.95803 80.2695 -206.64803 80.2695 C -203.28503 80.2695 -197.26703 77.2605 -192.84203 64.6935 C -190.01003 56.9055 -186.82403 41.8605 -183.81503 27.3465 C -183.10703 24.3375 -181.69103 8.938499999999998 -177.26603 8.938499999999998 C -171.95603 8.938499999999998 -165.76103 15.310499999999998 -156.91103 25.9305 C -140.80403 45.400499999999994 -139.03403 94.42949999999999 -101.51003 94.42949999999999 C -91.24403 94.42949999999999 -88.05803 90.0045 -88.05803 82.9245 C -88.05803 80.2695 -89.47403 79.38449999999999 -91.59803000000001 79.38449999999999 C -94.96103000000001 79.38449999999999 -100.27103000000001 81.50849999999998 -104.16503 81.50849999999998 C -127.17503 81.50849999999998 -126.29003 38.49749999999998 -145.93703 12.124499999999983 C -151.07003 5.221499999999984 -160.09703 1.1504999999999832 -166.11503 0.796499999999984 C -143.28203 -11.062500000000016 -105.40402999999999 -59.73750000000001 -105.40402999999999 -85.93350000000002 C -105.40402999999999 -91.59750000000003 -107.35103 -94.42950000000002 -113.36903 -94.42950000000002 C -117.44003 -94.42950000000002 -119.21002999999999 -86.81850000000001 -120.98003 -81.15450000000001 C -130.00703 -51.595500000000015 -161.86703 -18.49650000000001 -177.08903 -5.575500000000019 C -177.08903 -5.9295000000000195 -177.26603 -6.28350000000002 -177.26603 -6.814500000000019 C -174.78803 -22.213500000000018 -170.18603 -48.586500000000015 -165.40703 -63.63150000000002 C -163.46003 -70.00350000000002 -160.27402999999998 -78.14550000000001 -160.27402999999998 -84.69450000000002 C -160.27402999999998 -91.06650000000002 -165.76102999999998 -91.95150000000002 -171.07102999999998 -91.95150000000002 C -175.67302999999998 -91.95150000000002 -177.44302999999996 -88.94250000000002 -178.85903 -84.87150000000003 C -188.77103 -55.66650000000003 -194.43502999999998 -2.21250000000002 -202.93103 43.27649999999997 C -204.17003 50.35649999999997 -206.64803 59.56049999999997 -208.06403 66.10949999999997 z M -93.01403 -36.1965 C -86.99603 -36.1965 -83.98703 -43.0995 -83.98703 -48.2325 C -83.98703 -51.7725 -85.22603000000001 -56.3745 -89.65103 -56.3745 C -96.90803000000001 -56.3745 -99.74003 -50.0025 -99.74003 -44.515499999999996 C -99.74003 -40.7985 -97.08503 -36.19649999999999 -93.01403 -36.19649999999999 z M -99.91703 34.6035 C -89.12003 34.6035 -67.70303 5.3984999999999985 -67.70303 -3.451500000000003 C -67.70303 -5.044500000000003 -68.05703 -6.106500000000002 -69.82703 -6.106500000000002 C -76.37603 -6.106500000000002 -90.35902999999999 22.213499999999996 -95.31503 22.213499999999996 C -97.97003 22.213499999999996 -98.14702999999999 18.1425 -98.14702999999999 16.372499999999995 C -98.14702999999999 -5.221500000000006 -89.65102999999999 -13.186500000000006 -89.65102999999999 -20.974500000000006 C -89.65102999999999 -25.576500000000006 -92.30602999999999 -26.638500000000008 -96.55403 -26.638500000000008 C -105.75802999999999 -26.638500000000008 -111.77602999999999 -3.628500000000006 -111.77602999999999 11.416499999999992 C -111.77602999999999 18.850499999999993 -110.00603 34.6035 -99.91703 34.6035 z M -58.67603 54.0735 C -46.10903 54.0735 -13.895029999999998 7.6995000000000005 -13.01003 -4.336499999999994 C -12.83303 -6.283499999999994 -14.95703 -6.106499999999993 -16.37303 -6.106499999999993 C -19.55903 -1.150499999999993 -45.22403 37.61250000000001 -50.71103 37.61250000000001 C -51.95003 37.61250000000001 -51.77303 35.84250000000001 -51.77303 34.95750000000001 C -50.88803 25.04550000000001 -42.92303 14.956500000000009 -42.03803 4.513500000000011 C -40.97603 -6.460499999999989 -49.649029999999996 -6.637499999999989 -58.49903 -9.646499999999989 C -54.25103 -13.540499999999989 -50.357029999999995 -21.15149999999999 -49.826029999999996 -26.63849999999999 C -49.29503 -33.18749999999999 -53.189029999999995 -43.27649999999999 -60.80002999999999 -43.27649999999999 C -73.36703 -43.27649999999999 -77.96902999999999 -30.53249999999999 -78.85403 -20.26649999999999 C -80.27002999999999 -2.5664999999999907 -67.17202999999999 -1.32749999999999 -54.25102999999999 2.7435000000000116 C -54.42802999999999 5.752500000000012 -58.67602999999999 14.602500000000012 -60.092029999999994 18.142500000000013 C -62.924029999999995 25.753500000000013 -65.75603 33.71850000000001 -66.46403 41.68350000000001 C -66.99503 48.05550000000001 -66.28702999999999 54.07350000000001 -58.67603 54.07350000000001 z M -60.62303 -25.5765 C -60.97703 -22.0365 -62.74703 -13.894499999999999 -65.40203 -11.4165 C -68.05703 -12.8325 -68.41103 -17.4345 -68.23402999999999 -20.2665 C -67.88002999999999 -22.567500000000003 -66.81803 -32.3025 -63.27802999999999 -32.3025 C -60.800029999999985 -32.3025 -60.446029999999986 -27.346500000000002 -60.623029999999986 -25.576500000000003 z M -8.05403 30.8865 C 6.105970000000001 30.8865 16.194969999999998 14.602500000000003 20.265970000000003 2.212500000000002 C 18.849970000000003 10.000500000000002 15.840970000000002 22.9215 15.840970000000002 30.709500000000002 C 15.840970000000002 38.8515 19.026970000000002 46.9935 28.230970000000003 46.9935 C 35.133970000000005 46.9935 40.97497 41.860499999999995 45.222970000000004 36.9045 C 50.532970000000006 30.7095 67.34797 3.451499999999996 67.34797 -3.6285000000000025 C 67.34797 -5.044500000000003 67.17097 -6.106500000000002 65.40097 -6.106500000000002 C 58.32097 -6.106500000000002 39.91297 34.6035 33.00997 34.6035 C 31.416970000000003 34.6035 31.239970000000003 32.479499999999994 31.239970000000003 31.417499999999997 C 31.239970000000003 15.487499999999997 37.788970000000006 0.44249999999999545 37.788970000000006 -14.779500000000006 C 37.788970000000006 -19.735500000000005 34.42597000000001 -23.452500000000008 28.230970000000006 -23.452500000000008 C 20.265970000000006 -23.452500000000008 8.760970000000007 18.49649999999999 -4.514029999999991 18.49649999999999 C -6.992029999999991 18.49649999999999 -7.877029999999991 17.08049999999999 -7.877029999999991 12.47849999999999 C -7.877029999999991 2.03549999999999 -3.0980299999999907 -8.761500000000009 0.972970000000009 -21.85950000000001 C 1.680970000000009 -24.337500000000013 0.618970000000009 -28.58550000000001 -3.0980299999999907 -28.58550000000001 C -16.550029999999992 -28.58550000000001 -22.03702999999999 -2.920500000000011 -22.03702999999999 9.823499999999989 C -22.03702999999999 18.49649999999999 -20.44402999999999 30.886499999999987 -8.05402999999999 30.886499999999987 z M 72.48097 53.8965 C 78.32197 53.8965 85.04796999999999 48.0555 85.75597 42.74550000000001 C 86.28697000000001 38.49750000000001 82.21597 34.426500000000004 77.25997000000001 34.426500000000004 C 71.59597000000001 34.426500000000004 66.28597 39.73650000000001 65.75497000000001 45.93150000000001 C 65.40097000000002 50.71050000000001 68.23297000000001 53.8965 72.48097000000001 53.8965 z M 121.33297 -36.1965 C 127.35097 -36.1965 130.35997 -43.0995 130.35997 -48.2325 C 130.35997 -51.7725 129.12097 -56.3745 124.69597 -56.3745 C 117.43897 -56.3745 114.60697 -50.0025 114.60697 -44.515499999999996 C 114.60697 -40.7985 117.26197 -36.19649999999999 121.33297 -36.19649999999999 z M 114.42997 34.6035 C 125.22697 34.6035 146.64397 5.3984999999999985 146.64397 -3.451500000000003 C 146.64397 -5.044500000000003 146.28996999999998 -6.106500000000002 144.51997 -6.106500000000002 C 137.97097 -6.106500000000002 123.98797 22.213499999999996 119.03197 22.213499999999996 C 116.37697 22.213499999999996 116.19997000000001 18.1425 116.19997000000001 16.372499999999995 C 116.19997000000001 -5.221500000000006 124.69597 -13.186500000000006 124.69597 -20.974500000000006 C 124.69597 -25.576500000000006 122.04097 -26.638500000000008 117.79297 -26.638500000000008 C 108.58896999999999 -26.638500000000008 102.57097 -3.628500000000006 102.57097 11.416499999999992 C 102.57097 18.850499999999993 104.34097 34.6035 114.42997 34.6035 z M 154.25497 45.2235 C 167.52997 45.2235 179.03497 31.594500000000004 184.16797 14.956500000000002 C 194.96497 13.717500000000001 209.83297 2.9205000000000023 209.83297 -3.8054999999999986 C 209.83297 -5.3984999999999985 208.94797 -6.9914999999999985 207.70897 -7.345499999999999 C 202.22197 -2.9204999999999988 192.66397 2.389500000000001 186.64597 3.982500000000001 C 186.99997000000002 1.6815000000000007 186.99997000000002 -0.6194999999999995 186.99997000000002 -2.9204999999999988 C 186.99997000000002 -20.4435 177.61897000000002 -36.1965 166.99897 -36.1965 C 158.32597 -36.1965 148.59097000000003 -25.753500000000003 148.59097000000003 -16.549500000000002 C 148.59097000000003 -16.195500000000003 148.59097000000003 -15.664500000000002 148.59097000000003 -15.310500000000001 C 139.91797000000003 -8.230500000000001 134.96197000000004 3.4514999999999993 134.96197000000004 16.5495 C 134.96197000000004 33.1875 143.10397000000003 45.2235 154.25497000000004 45.2235 z M 176.20297 2.0355 C 168.59197 -2.2125000000000004 160.09597 -11.0625 160.09597 -16.372500000000002 C 160.09597 -19.558500000000002 163.45897 -23.2755 166.64497 -23.2755 C 171.77797 -23.2755 176.37997000000001 -13.1865 176.37997000000001 -2.0355000000000025 C 176.37997000000001 -0.6195000000000026 176.37997000000001 0.6194999999999973 176.20297000000002 2.035499999999997 z M 174.25597 13.5405 C 171.24697 24.868499999999997 165.58297 34.6035 158.85697 34.6035 C 154.07797 34.6035 149.65296999999998 26.815499999999997 149.65296999999998 18.319499999999998 C 149.65296999999998 11.593499999999999 152.48496999999998 3.0974999999999984 155.49397 -0.7965000000000018 C 160.44996999999998 5.3984999999999985 167.52997 10.885499999999999 174.25597 13.540499999999998 z" stroke-linecap="round" />
</g>
</svg>