<?xml version="1.0" encoding="UTF-8" standalone="no"?>
<!-- Created with Inkscape (http://www.inkscape.org/) -->

<svg
   width="118.86517mm"
   height="41.470833mm"
   viewBox="0 0 118.86517 41.470833"
   version="1.1"
   id="svg5"
   inkscape:version="1.2.1 (9c6d41e4, 2022-07-14)"
   sodipodi:docname="logo.svg"
   xmlns:inkscape="http://www.inkscape.org/namespaces/inkscape"
   xmlns:sodipodi="http://sodipodi.sourceforge.net/DTD/sodipodi-0.dtd"
   xmlns="http://www.w3.org/2000/svg"
   xmlns:svg="http://www.w3.org/2000/svg">
  <sodipodi:namedview
     id="namedview7"
     pagecolor="#ffffff"
     bordercolor="#666666"
     borderopacity="1.0"
     inkscape:showpageshadow="2"
     inkscape:pageopacity="0.0"
     inkscape:pagecheckerboard="0"
     inkscape:deskcolor="#d1d1d1"
     inkscape:document-units="mm"
     showgrid="false"
     inkscape:zoom="0.914906"
     inkscape:cx="-43.173834"
     inkscape:cy="317.51896"
     inkscape:window-width="1920"
     inkscape:window-height="1119"
     inkscape:window-x="0"
     inkscape:window-y="25"
     inkscape:window-maximized="0"
     inkscape:current-layer="layer1" />
  <defs
     id="defs2">
    <inkscape:path-effect
       effect="fillet_chamfer"
       id="path-effect11369"
       is_visible="true"
       lpeversion="1"
       nodesatellites_param="F,0,0,1,0,1.8520833,0,1 @ F,0,0,1,0,1.8520833,0,1 @ F,0,0,1,0,1.8520833,0,1 @ F,0,0,1,0,1.8520833,0,1"
       unit="px"
       method="auto"
       mode="F"
       radius="7"
       chamfer_steps="1"
       flexible="false"
       use_knot_distance="true"
       apply_no_radius="true"
       apply_with_radius="true"
       only_selected="false"
       hide_knots="false" />
  </defs>
  <g
     inkscape:label="Layer 1"
     inkscape:groupmode="layer"
     id="layer1"
     transform="translate(-16.170135,-67.646266)">
    <g
       aria-label="TESTER"
       id="text236"
       style="font-size:23.6883px;line-height:1.25;fill:#4f4e79;stroke-width:0.592206">
      <path
         d="M 62.33953,97.142761 V 81.74768 h -5.204949 l 0.809659,-1.850648 h 11.450886 l -0.809658,1.850648 h -4.39529 v 14.585423 z"
         style="font-family:NovaMono;-inkscape-font-specification:NovaMono"
         id="path352" />
      <path
         d="m 74.125847,89.335338 v 5.725444 h 8.235385 L 81.551573,96.91143 H 72.275198 V 80.695124 l 1.850649,-0.809659 6.731733,0.01157 -0.809658,1.850648 h -5.922075 v 5.73701 h 6.731733 l -0.809658,1.850648 z"
         style="font-family:NovaMono;-inkscape-font-specification:NovaMono"
         id="path354" />
      <path
         d="m 89.856358,86.640332 q 2.255478,0.254464 3.689731,1.64245 1.526785,1.480519 1.526785,3.631898 v 0.0347 q 0,2.197645 -1.503652,3.68973 -1.515219,1.503652 -3.68973,1.503652 -2.197645,0 -3.689731,-1.503652 -1.526785,-1.549918 -1.526785,-3.643464 V 91.84528 l 1.850649,-0.809658 v 0.994723 q 0,1.387986 0.994723,2.359577 0.994724,0.983157 2.371144,0.983157 1.399552,0 2.382709,-0.983157 0.983157,-0.994724 0.983157,-2.371143 0,-1.445819 -0.948457,-2.348011 -1.087256,-1.029423 -2.371143,-1.121955 -2.197645,-0.173498 -3.446833,-1.422686 -1.295454,-1.283887 -1.295454,-3.099836 0,-1.827515 1.272321,-3.08827 1.272321,-1.27232 3.076703,-1.27232 1.827515,0 3.088269,1.27232 1.283888,1.295454 1.283888,3.076703 v 0.115666 l -1.850649,0.832792 v -0.913758 q -0.02313,-1.075689 -0.740259,-1.781249 -0.751826,-0.740259 -1.781249,-0.740259 -1.029423,0 -1.746549,0.717126 -0.74026,0.751826 -0.74026,1.781249 0,1.029423 0.74026,1.769682 0.693993,0.693994 2.070412,0.844359 z"
         style="font-family:NovaMono;-inkscape-font-specification:NovaMono"
         id="path356" />
      <path
         d="M 102.24414,97.142761 V 81.74768 h -5.204953 l 0.809659,-1.850648 h 11.450884 l -0.80966,1.850648 h -4.39529 v 14.585423 z"
         style="font-family:NovaMono;-inkscape-font-specification:NovaMono"
         id="path358" />
      <path
         d="m 114.03045,89.335338 v 5.725444 h 8.23539 l -0.80966,1.850648 h -9.27637 V 80.695124 l 1.85064,-0.809659 6.73174,0.01157 -0.80966,1.850648 h -5.92208 v 5.73701 h 6.73174 l -0.80966,1.850648 z"
         style="font-family:NovaMono;-inkscape-font-specification:NovaMono"
         id="path360" />
      <path
         d="M 124.50975,97.142761 V 80.475359 l 1.85065,-0.578327 h 3.389 q 2.13981,0 3.63189,1.526785 1.51522,1.538351 1.51522,3.68973 0,2.174512 -1.50365,3.68973 -0.69399,0.70556 -1.52679,1.087256 l 3.16924,6.44257 -1.86221,0.809658 -3.18081,-6.812699 q -0.11566,0 -0.24289,0 h -3.389 v 6.003041 z M 126.3604,81.74768 v 6.731734 h 3.4237 q 1.37642,0 2.35957,-0.983157 0.98316,-0.983157 0.98316,-2.38271 0,-1.37642 -0.98316,-2.371143 -0.98315,-0.994724 -2.35957,-0.994724 z"
         style="font-family:NovaMono;-inkscape-font-specification:NovaMono"
         id="path362" />
    </g>
    <circle
       style="fill:#4f4e79;fill-opacity:1;stroke:#000000;stroke-width:0"
       id="path11475"
       cx="36.905552"
       cy="88.381683"
       r="16.975924" />
    <g
       aria-label="OG"
       id="text1058"
       style="font-size:15.4401px;line-height:1.25;stroke-width:0.386002">
      <path
         d="m 34.83605,84.058012 q 0.686059,0.753911 1.047936,1.847082 0.369417,1.093171 0.369417,2.480368 0,1.387196 -0.376956,2.487906 -0.369416,1.093171 -1.040397,1.824465 -0.693598,0.76145 -1.643527,1.145945 -0.942388,0.384495 -2.156185,0.384495 -1.183641,0 -2.156186,-0.392034 -0.965006,-0.392034 -1.643526,-1.138406 -0.67852,-0.746372 -1.047937,-1.832004 -0.361877,-1.085632 -0.361877,-2.480367 0,-1.372119 0.361877,-2.457751 0.361878,-1.093171 1.055476,-1.869699 0.663442,-0.738833 1.643526,-1.130867 0.987624,-0.392034 2.148647,-0.392034 1.206257,0 2.163725,0.399573 0.965006,0.392034 1.635987,1.123328 z m -0.135704,4.32745 q 0,-2.186343 -0.980085,-3.369983 -0.980084,-1.19118 -2.676384,-1.19118 -1.711378,0 -2.691463,1.19118 -0.972545,1.18364 -0.972545,3.369983 0,2.208959 0.995162,3.38506 0.995163,1.168563 2.668846,1.168563 1.673682,0 2.661306,-1.168563 0.995163,-1.176101 0.995163,-3.38506 z"
         style="fill:#ffffff"
         id="path300" />
      <path
         d="m 47.98426,93.165258 q -0.919772,0.42219 -2.012943,0.738833 -1.085632,0.309103 -2.103412,0.309103 -1.311805,0 -2.404976,-0.361877 -1.093171,-0.361877 -1.862161,-1.085632 -0.776528,-0.731294 -1.198718,-1.824465 -0.422191,-1.10071 -0.422191,-2.570837 0,-2.691462 1.568136,-4.244519 1.575674,-1.560596 4.31991,-1.560596 0.957467,0 1.95263,0.233712 1.002702,0.226173 2.156186,0.776529 V 85.3472 h -0.135704 q -0.233713,-0.180939 -0.67852,-0.474964 -0.444808,-0.294026 -0.874537,-0.490043 -0.520199,-0.233712 -1.183641,-0.384494 -0.655902,-0.158322 -1.492744,-0.158322 -1.884777,0 -2.985488,1.213797 -1.093171,1.206258 -1.093171,3.271975 0,2.178803 1.145945,3.3926 1.145945,1.206257 3.121192,1.206257 0.723755,0 1.43997,-0.143243 0.723755,-0.143243 1.266571,-0.369416 v -2.751776 h -3.008105 v -1.311805 h 4.485771 z"
         style="fill:#ffffff"
         id="path302" />
    </g>
  </g>
</svg>
