<?xml version="1.0" encoding="UTF-8"?>
<svg width="623.39" height="87.844" version="1.1" viewBox="0 0 334.14573 47.085427" xmlns="http://www.w3.org/2000/svg" xmlns:xlink="http://www.w3.org/1999/xlink"><defs><path id="g2jcknUjuo" d="m213.26 213.43c-8.78 0-15.9 7.12-15.9 15.9 0 8.79 7.12 15.91 15.9 15.91 8.79 0 15.91-7.12 15.91-15.91 0-8.78-7.12-15.9-15.91-15.9z"/><path id="b2kA63PQwc" d="m209.79 237.28v-2.89l1.93 0.97z"/><path id="d9xmxYs0s5" d="m216.15 237.57-6.36-3.18v2.89l-2.31-4.62-3.47-2.32 18.51-9.25z"/><path id="b4MJHnAgwf" d="m209.79 237.28v-2.89l12.73-13.3-15.04 11.57z"/></defs><g transform="translate(-75.72 -164.48)"><a transform="translate(-6.7797 18.644)"><g transform="translate(44.407 -69.831)"><g fill="#267daa" stroke-width=".53601" aria-label="DailyD .chat"><path d="m62.892 235.37q0 3.8191-0.95477 6.9347-0.92965 3.1156-2.9397 5.3266-1.9849 2.1859-5.1005 3.392-3.1156 1.1809-7.4623 1.1809h-8.3417v-32.839h9.7236q3.7688 0 6.5829 0.95478 2.8392 0.92965 4.7236 2.8894 1.8844 1.9598 2.8141 4.9749 0.95477 3.0151 0.95477 7.1859zm-6.6332 0.40201q0-2.6633-0.42714-4.7488-0.42714-2.0854-1.4573-3.5176-1.005-1.4573-2.7136-2.2111t-4.2462-0.75377h-3.1407v22.487h2.7136q4.5477 0 6.9095-2.7136t2.3618-8.5427z"/><path d="m83.771 252.2-0.15075-3.3417q-0.80402 0.85427-1.6834 1.5829-0.8794 0.70351-1.9347 1.2312-1.0553 0.52764-2.3116 0.80402-1.2312 0.30151-2.7136 0.30151-1.9598 0-3.4422-0.57789t-2.4874-1.608-1.5327-2.4874q-0.50251-1.4573-0.50251-3.2161 0-1.809 0.75377-3.3417 0.7789-1.5327 2.3367-2.6382 1.5829-1.1055 3.9196-1.7337 2.3618-0.62814 5.5276-0.62814h3.3417v-1.5327q0-0.9799-0.27638-1.7588-0.27638-0.80402-0.90452-1.3568-0.60302-0.55276-1.5829-0.85427-0.9799-0.30151-2.4121-0.30151-2.2613 0-4.4724 0.52764-2.1859 0.50251-4.2462 1.4322v-4.8995q1.8342-0.72864 4.2211-1.206 2.4121-0.47738 5-0.47738 2.8392 0 4.8744 0.55276 2.0352 0.52764 3.3417 1.608 1.3317 1.0804 1.9598 2.7136 0.62814 1.608 0.62814 3.7688v17.437zm-0.8794-11.281h-3.7437q-1.5578 0-2.6382 0.30151t-1.7588 0.82915q-0.67839 0.52763-1.005 1.2312-0.30151 0.67839-0.30151 1.4573 0 1.5578 1.005 2.3869 1.005 0.80402 2.7387 0.80402 1.2814 0 2.6633-0.92965 1.3819-0.92964 3.0402-2.6633z"/><path d="m111.13 219.69q0 0.82914-0.3015 1.5578-0.30151 0.72864-0.85428 1.2814-0.52763 0.52764-1.2563 0.85427-0.72864 0.30151-1.5829 0.30151t-1.608-0.30151q-0.72865-0.32663-1.2814-0.85427-0.52764-0.55276-0.82914-1.2814-0.30151-0.72865-0.30151-1.5578 0-0.82915 0.30151-1.5578 0.3015-0.72865 0.82914-1.2814 0.55276-0.55276 1.2814-0.85427 0.75377-0.32663 1.608-0.32663t1.5829 0.32663q0.72865 0.30151 1.2563 0.85427 0.55277 0.55276 0.85428 1.2814 0.3015 0.72864 0.3015 1.5578zm-6.7839 11.759h-7.2111v-4.7739h13.492v20.754h7.3618v4.7739h-21.734v-4.7739h8.0904z"/><path d="m132.69 221.47h-7.2111v-4.7739h13.492v30.729h7.3618v4.7739h-21.734v-4.7739h8.0905z"/><path d="m168.14 249.41q-1.3316 3.3166-2.7889 5.804-1.4322 2.5126-3.1658 4.1709-1.7337 1.6834-3.8694 2.5126-2.1106 0.85427-4.7487 0.85427-0.62814 0-1.3819-0.0754-0.72864-0.0503-1.5075-0.17588v-5.201q0.30151 0.0503 0.67839 0.1005 0.40201 0.0754 0.82915 0.10051 0.42714 0.0503 0.85427 0.0754 0.45226 0.0251 0.82915 0.0251 1.0553 0 1.9598-0.40201 0.90452-0.40201 1.6583-1.1306 0.77889-0.70352 1.407-1.7086 0.62814-0.9799 1.1055-2.1608l-10.126-25.528h6.8342l5.3015 14.472 1.5829 4.6734 1.5578-4.4724 5.3518-14.673h6.5829z"/><path d="m204.6 235.37q0 3.8191-0.95478 6.9347-0.92964 3.1156-2.9397 5.3266-1.9849 2.1859-5.1005 3.392-3.1156 1.1809-7.4623 1.1809h-8.3417v-32.839h9.7236q3.7688 0 6.5829 0.95478 2.8392 0.92965 4.7236 2.8894 1.8844 1.9598 2.8141 4.9749 0.95478 3.0151 0.95478 7.1859zm-6.6332 0.40201q0-2.6633-0.42713-4.7488-0.42714-2.0854-1.4573-3.5176-1.005-1.4573-2.7136-2.2111t-4.2462-0.75377h-3.1407v22.487h2.7136q4.5477 0 6.9096-2.7136t2.3618-8.5427z"/><path d="m248.32 242.93q1.0553 0 1.9598 0.40201 0.90452 0.37689 1.5578 1.0553 0.67839 0.65327 1.0553 1.5578 0.37689 0.90452 0.37689 1.9347 0 1.005-0.37689 1.9096-0.37688 0.8794-1.0553 1.5578-0.65327 0.65326-1.5578 1.0302-0.90452 0.40201-1.9598 0.40201-1.005 0-1.8844-0.40201-0.8794-0.37689-1.5327-1.0302-0.65326-0.67839-1.0302-1.5578-0.37688-0.90452-0.37688-1.9096 0-1.0302 0.37688-1.9347 0.37689-0.90452 1.0302-1.5578 0.65327-0.67839 1.5327-1.0553 0.87939-0.40201 1.8844-0.40201z"/><path d="m286.81 251.22q-1.809 0.72864-3.7437 1.0804t-4.0452 0.35176q-3.0402 0-5.4523-0.82915-2.4121-0.82914-4.0955-2.4623-1.6834-1.6332-2.5879-4.0452-0.8794-2.4121-0.8794-5.5779 0-3.0653 0.95477-5.5528 0.9799-2.4874 2.7387-4.2462 1.7588-1.7588 4.2211-2.7136 2.4874-0.95477 5.5276-0.95477 2.4874 0 4.1708 0.27638 1.7086 0.25126 3.0653 0.65327v5.9548q-1.5578-0.77889-3.392-1.206-1.809-0.42713-3.4422-0.42713-1.7085 0-3.0653 0.57789-1.3568 0.57789-2.2864 1.608t-1.4322 2.5126q-0.47739 1.4573-0.47739 3.2161 0 1.8342 0.52764 3.2915 0.52764 1.4573 1.4824 2.4874 0.9799 1.005 2.3367 1.5578 1.3568 0.52764 3.0151 0.52764 0.80402 0 1.6834-0.1005 0.90452-0.12563 1.7839-0.32663 0.90452-0.22613 1.7588-0.50252 0.8794-0.27638 1.6332-0.60301z"/><path d="m309.73 252.2v-16.633q0-4.196-3.1156-4.196-1.5578 0-2.99 1.2563-1.407 1.2563-2.99 3.4171v16.156h-6.1306v-35.503h6.1306v8.7437l-0.30151 4.6231q0.7789-0.92965 1.5829-1.6583 0.80402-0.75377 1.7337-1.2563 0.92964-0.50251 2.01-0.75377 1.0804-0.27638 2.3869-0.27638 1.9598 0 3.4171 0.65326 1.4573 0.62814 2.4372 1.809 0.9799 1.1558 1.4573 2.8141 0.50251 1.6332 0.50251 3.6683v17.136z"/><path d="m338.85 252.2-0.15076-3.3417q-0.80402 0.85427-1.6834 1.5829-0.8794 0.70351-1.9347 1.2312-1.0553 0.52764-2.3116 0.80402-1.2312 0.30151-2.7136 0.30151-1.9598 0-3.4422-0.57789-1.4824-0.57789-2.4874-1.608-1.005-1.0302-1.5327-2.4874-0.50252-1.4573-0.50252-3.2161 0-1.809 0.75377-3.3417 0.7789-1.5327 2.3367-2.6382 1.5829-1.1055 3.9196-1.7337 2.3618-0.62814 5.5276-0.62814h3.3417v-1.5327q0-0.9799-0.27638-1.7588-0.27638-0.80402-0.90452-1.3568-0.60302-0.55276-1.5829-0.85427t-2.4121-0.30151q-2.2613 0-4.4724 0.52764-2.1859 0.50251-4.2462 1.4322v-4.8995q1.8342-0.72864 4.2211-1.206 2.4121-0.47738 5-0.47738 2.8392 0 4.8744 0.55276 2.0352 0.52764 3.3417 1.608 1.3317 1.0804 1.9598 2.7136 0.62814 1.608 0.62814 3.7688v17.437zm-0.8794-11.281h-3.7437q-1.5578 0-2.6382 0.30151t-1.7588 0.82915q-0.67839 0.52763-1.005 1.2312-0.30151 0.67839-0.30151 1.4573 0 1.5578 1.005 2.3869 1.005 0.80402 2.7387 0.80402 1.2814 0 2.6633-0.92965 1.3819-0.92964 3.0402-2.6633z"/><path d="m372.24 251.95q-1.6583 0.37689-3.3417 0.60302-1.6834 0.22613-3.191 0.22613-2.5126 0-4.3467-0.52764-1.809-0.52764-3.0151-1.608-1.1809-1.0804-1.7588-2.7387-0.55277-1.6834-0.55277-3.995v-12.462h-6.8593v-4.7739h6.8593v-6.5327l6.2814-1.6332v8.1658h9.9246v4.7739h-9.9246v12.01q0 2.1859 1.005 3.3166 1.005 1.1055 3.3668 1.1055 1.5075 0 2.9397-0.25126 1.4322-0.25125 2.6131-0.57788z"/></g><g transform="matrix(.83469 0 0 .83469 43.106 47.487)"><g fill="#267daa"><use width="100%" height="100%" xlink:href="#g2jcknUjuo"/><use width="100%" height="100%" fill="#267daa" stroke-opacity="0" xlink:href="#g2jcknUjuo"/></g><use width="100%" height="100%" fill="#cfd3d4" xlink:href="#b2kA63PQwc"/><use width="100%" height="100%" fill-opacity="0" stroke-opacity="0" xlink:href="#b2kA63PQwc"/><use width="100%" height="100%" fill="#ffffff" xlink:href="#d9xmxYs0s5"/><use width="100%" height="100%" fill-opacity="0" stroke-opacity="0" xlink:href="#d9xmxYs0s5"/><use width="100%" height="100%" fill="#e2e4e5" xlink:href="#b4MJHnAgwf"/><use width="100%" height="100%" fill-opacity="0" stroke-opacity="0" xlink:href="#b4MJHnAgwf"/></g></g></a></g></svg>
